<?xml version="1.0" encoding="UTF-8"?>
<svg id="Calque_1" data-name="Calque 1" xmlns="http://www.w3.org/2000/svg" viewBox="0 0 3197.41 1084.48">
  <defs>
    <style>
      .cls-1 {
        fill: #fff;
      }
    </style>
  </defs>
  <path class="cls-1" d="M430.46,254.07c8.7,0,14.51,5.8,14.51,13.53l-10.64,93.82c-.96,7.73-6.77,14.51-14.51,14.51h-61.9v395.57c0,7.73-6.77,14.51-14.51,14.51h-170.22c-7.74,0-14.51-6.77-14.51-14.51v-395.57h-55.13c-6.77,0-13.54-5.81-13.54-13.54v-93.81c0-8.71,6.77-14.51,13.54-14.51h55.13v-105.43c0-6.77,6.77-12.57,14.51-13.53l170.22-16.44c7.73-.97,14.51,6.77,14.51,13.53v121.87h72.54Z"/>
  <path class="cls-1" d="M946.9,731.84c1.93,6.77,0,10.64-6.77,14.51-51.26,33.86-125.73,54.16-200.2,54.16-171.19,0-285.31-112.19-285.31-279.5s112.19-280.48,280.48-280.48,255.33,103.48,255.33,279.5c0,14.51-.96,29.01-3.87,43.53-.97,7.73-5.8,11.6-14.51,11.6h-310.46s0,60.93,81.24,60.93c49.33,0,104.45-11.61,147.98-31.91,6.77-2.91,12.57.96,14.51,7.73l41.59,119.92ZM797.96,473.61c0-42.56-26.11-70.61-64.8-70.61-43.52,0-72.54,28.05-72.54,70.61h137.34Z"/>
  <path class="cls-1" d="M1194.45,294.69c30.95-33.86,87.04-54.16,151.85-54.16,69.63,0,122.83,28.05,144.11,76.4,37.72-48.35,99.61-76.4,167.32-76.4,129.6,0,206,79.3,206,212.77v319.16c0,8.71-4.84,13.54-13.54,13.54h-172.16c-8.7,0-13.54-4.84-13.54-13.54v-290.15c-1.94-38.68-18.37-60.93-47.39-60.93-55.13,0-63.83,54.16-62.87,54.16v296.91c0,8.71-4.84,13.54-13.54,13.54h-172.16c-8.7,0-13.54-4.84-13.54-13.54v-290.15c0-41.58-18.37-60.93-47.39-60.93-55.13,0-63.83,54.16-63.83,54.16v296.91c0,8.71-4.84,13.54-13.54,13.54h-172.15c-8.71,0-13.54-4.84-13.54-13.54v-504.86c0-8.7,4.84-13.53,13.54-13.53h108.32c6.77,0,12.57,2.9,15.47,9.67l12.57,30.95Z"/>
  <path class="cls-1" d="M2081.27,303.39c36.75-38.68,98.65-63.83,163.45-63.83,152.81,0,255.33,112.2,255.33,280.48s-102.52,279.51-255.33,279.51c-45.46,0-88.98-13.54-117.99-36.76v189.57c0,6.77-6.77,13.54-14.51,13.54h-170.22c-7.73,0-14.51-6.77-14.51-13.54V268.58c0-7.74,6.77-14.51,14.51-14.51h109.29c6.77,0,11.61,5.8,15.47,14.51l14.51,34.81ZM2126.73,579.99c11.6,31.92,42.55,53.2,76.4,53.2,53.2,0,88.98-44.49,88.98-112.19s-35.78-116.06-88.98-116.06c-33.85,0-64.8,21.28-76.4,53.19v121.86Z"/>
  <path class="cls-1" d="M3107.39,520.03c0,168.29-114.13,280.48-284.35,280.48s-284.35-112.19-284.35-279.5,114.13-280.48,284.35-280.48,284.35,112.19,284.35,279.5ZM2727.29,521.01c0,62.86,38.68,105.42,95.75,105.42s95.76-42.56,95.76-106.39-38.69-105.42-95.76-105.42-95.75,42.56-95.75,106.39Z"/>
  <path class="cls-1" d="M2712.24,965.9c15.6-9.79,55.43-31.89,110.8-31.64,54.29.24,93.33,21.83,108.97,31.64h130.36c-9.58-12.42-93.72-117.69-239.36-117.68-145.59.02-229.71,105.25-239.29,117.68h128.52Z"/>
</svg>