<?xml version="1.0" encoding="UTF-8"?>
<svg id="Calque_1" data-name="Calque 1" xmlns="http://www.w3.org/2000/svg" viewBox="0 0 3240.02 1153.65">
  <defs>
    <style>
      .cls-1 {
        fill: #fff;
      }
    </style>
  </defs>
  <path class="cls-1" d="M445.16,287.04c8.75,0,14.59,5.84,14.59,13.62l-10.7,94.34c-.97,7.78-6.81,14.59-14.59,14.59h-62.24v397.79c0,7.78-6.81,14.59-14.59,14.59h-171.17c-7.79,0-14.59-6.81-14.59-14.59v-397.79h-55.44c-6.81,0-13.61-5.83-13.61-13.61v-94.34c0-8.75,6.81-14.59,13.61-14.59h55.44v-106.01c0-6.81,6.81-12.64,14.59-13.61l171.17-16.54c7.78-.97,14.59,6.81,14.59,13.62v122.54h72.94Z"/>
  <path class="cls-1" d="M964.51,767.49c1.95,6.81,0,10.7-6.81,14.59-51.55,34.05-126.44,54.46-201.32,54.46-172.15,0-286.91-112.82-286.91-281.07s112.82-282.05,282.05-282.05,256.76,104.06,256.76,281.07c0,14.59-.97,29.18-3.89,43.77-.97,7.78-5.84,11.67-14.59,11.67h-312.2s0,61.27,81.7,61.27c49.6,0,105.04-11.67,148.8-32.09,6.81-2.92,12.65.97,14.59,7.78l41.82,120.6ZM814.74,507.81c0-42.79-26.26-71-65.16-71-43.77,0-72.94,28.21-72.94,71h138.1Z"/>
  <path class="cls-1" d="M1213.48,327.89c31.13-34.05,87.53-54.46,152.7-54.46,70.02,0,123.52,28.21,144.92,76.83,37.93-48.63,100.17-76.83,168.26-76.83,130.32,0,207.15,79.75,207.15,213.97v320.95c0,8.75-4.86,13.61-13.61,13.61h-173.12c-8.75,0-13.61-4.86-13.61-13.61v-291.78c-1.95-38.9-18.48-61.27-47.66-61.27-55.43,0-64.19,54.46-63.22,54.46v298.58c0,8.75-4.86,13.61-13.61,13.61h-173.12c-8.75,0-13.61-4.86-13.61-13.61v-291.78c0-41.82-18.48-61.27-47.66-61.27-55.43,0-64.19,54.46-64.19,54.46v298.58c0,8.75-4.87,13.61-13.62,13.61h-173.12c-8.75,0-13.62-4.86-13.62-13.61v-507.69c0-8.75,4.87-13.62,13.62-13.62h108.92c6.81,0,12.65,2.92,15.57,9.73l12.64,31.13Z"/>
  <path class="cls-1" d="M2105.31,336.64c36.96-38.91,99.2-64.19,164.36-64.19,153.67,0,256.76,112.82,256.76,282.05s-103.09,281.07-256.76,281.07c-45.71,0-89.48-13.61-118.65-36.95v190.62c0,6.81-6.81,13.62-14.59,13.62h-171.17c-7.78,0-14.59-6.81-14.59-13.62V301.63c0-7.79,6.81-14.59,14.59-14.59h109.9c6.81,0,11.67,5.84,15.56,14.59l14.59,35.01ZM2151.02,614.8c11.67,32.1,42.79,53.49,76.83,53.49,53.49,0,89.48-44.74,89.48-112.82s-35.99-116.71-89.48-116.71c-34.04,0-65.16,21.4-76.83,53.49v122.54Z"/>
  <path class="cls-1" d="M3137.2,554.5c0,169.23-114.77,282.05-285.94,282.05s-285.94-112.82-285.94-281.07,114.76-282.05,285.94-282.05,285.94,112.82,285.94,281.07ZM2754.98,555.47c0,63.22,38.91,106.01,96.29,106.01s96.28-42.79,96.28-106.98-38.91-106.01-96.28-106.01-96.29,42.79-96.29,106.98Z"/>
</svg>